<?xml version="1.0" encoding="UTF-8"?>
<svg width="24px" height="24px" viewBox="0 0 24 24" version="1.1" xmlns="http://www.w3.org/2000/svg" xmlns:xlink="http://www.w3.org/1999/xlink">
    <!-- Generator: Sketch 55.2 (78181) - https://sketchapp.com -->
    <title>icons / coin stack color</title>
    <desc>Created with Sketch.</desc>
    <g id="icons-/-coin-stack-color" stroke="none" stroke-width="1" fill="none" fill-rule="evenodd">
        <g id="coins-stack-color" transform="translate(0.000000, 1.000000)" fill-rule="nonzero">
            <path d="M12,19.0384615 C6.05834483,19.0384615 1.24137931,17.7853077 1.24137931,16.5 L1.24137931,19.4598462 C1.24468966,20.7443077 6.06,22 12,22 C17.94,22 22.7553103,20.7443077 22.7586207,19.4598462 L22.7586207,16.5 C22.7586207,17.7853077 17.9416552,19.0384615 12,19.0384615" id="XMLID_148_" fill="#E4AF18"></path>
            <path d="M10.7586207,14.3846154 C4.81696552,14.3846154 0,13.1314615 0,11.8461538 L0,14.806 C0.00331034483,16.0904615 4.81862069,17.3461538 10.7586207,17.3461538 C16.6986207,17.3461538 21.513931,16.0904615 21.5172414,14.806 L21.5172414,11.8461538 C21.5172414,13.1314615 16.7002759,14.3846154 10.7586207,14.3846154" id="XMLID_147_" fill="#F4BF1A"></path>
            <path d="M13.2413793,9.73076923 C7.29972414,9.73076923 2.48275862,8.47761538 2.48275862,7.19230769 L2.48275862,10.1521538 C2.48606897,11.4366154 7.30137931,12.6923077 13.2413793,12.6923077 C19.1813793,12.6923077 23.9966897,11.4366154 24,10.1521538 L24,7.19230769 C24,8.47761538 19.1830345,9.73076923 13.2413793,9.73076923" id="XMLID_146_" fill="#E4AF18"></path>
            <path d="M21.5172414,2.17038462 C21.5172414,3.45526923 16.7002759,4.65384615 10.7586207,4.65384615 C4.81696552,4.65384615 0,3.45526923 0,2.17038462 C0,0.885076923 4.81696552,0 10.7586207,0 C16.7002759,0 21.5172414,0.885076923 21.5172414,2.17038462" id="XMLID_145_" fill="#FFD949"></path>
            <path d="M10.7586207,4.65384615 C4.81696552,4.65384615 0,3.40069231 0,2.11538462 L0,5.07523077 C0.00331034483,6.35969231 4.81862069,7.61538462 10.7586207,7.61538462 C16.6986207,7.61538462 21.513931,6.35969231 21.5172414,5.07523077 L21.5172414,2.11538462 C21.5172414,3.40069231 16.7002759,4.65384615 10.7586207,4.65384615" id="XMLID_144_" fill="#F4BF1A"></path>
            <path d="M1.65517241,3.41592308 L1.65517241,6.37534615 C1.90675862,6.47011538 2.18234483,6.5615 2.48275862,6.64865385 L2.48275862,3.68880769 C2.18234483,3.60165385 1.90675862,3.51026923 1.65517241,3.41592308" id="XMLID_143_" fill="#DCA815"></path>
            <path d="M19.0344828,3.68880769 L19.0344828,6.64865385 C19.3348966,6.5615 19.6104828,6.47011538 19.862069,6.37534615 L19.862069,3.41592308 C19.6104828,3.51069231 19.3348966,3.60165385 19.0344828,3.68880769" id="XMLID_142_" fill="#DCA815"></path>
            <path d="M3.72413793,3.99596154 L3.72413793,6.95623077 C3.98896552,7.0125 4.26496552,7.06580769 4.55172414,7.11615385 L4.55172414,4.15588462 C4.26496552,4.10553846 3.98896552,4.05223077 3.72413793,3.99596154" id="XMLID_141_" fill="#DCA815"></path>
            <path d="M16.9655172,4.15588462 L16.9655172,7.11657692 C17.2522759,7.06580769 17.5282759,7.0125 17.7931034,6.95623077 L17.7931034,3.99596154 C17.5282759,4.05223077 17.2522759,4.10553846 16.9655172,4.15588462" id="XMLID_140_" fill="#DCA815"></path>
            <path d="M5.79310345,4.34457692 L5.79310345,7.30526923 C6.06289655,7.34080769 6.33806897,7.37380769 6.62068966,7.40342308 L6.62068966,4.44273077 C6.33806897,4.41311538 6.06289655,4.37969231 5.79310345,4.34457692" id="XMLID_139_" fill="#DCA815"></path>
            <path d="M14.8965517,4.44315385 L14.8965517,7.40384615 C15.1791724,7.37380769 15.4543448,7.34080769 15.7241379,7.30569231 L15.7241379,4.34457692 C15.4543448,4.38053846 15.1791724,4.41353846 14.8965517,4.44315385" id="XMLID_138_" fill="#DCA815"></path>
            <path d="M7.86206897,4.55188462 L7.86206897,7.513 C8.13393103,7.53246154 8.40951724,7.54980769 8.68965517,7.56376923 L8.68965517,4.60223077 C8.40951724,4.58826923 8.13393103,4.57134615 7.86206897,4.55188462" id="XMLID_137_" fill="#DCA815"></path>
            <path d="M12.8275862,4.60223077 L12.8275862,7.56376923 C13.1077241,7.54980769 13.3833103,7.53246154 13.6551724,7.513 L13.6551724,4.55188462 C13.3833103,4.57134615 13.1077241,4.58826923 12.8275862,4.60223077" id="XMLID_136_" fill="#DCA815"></path>
            <path d="M10.7586207,4.65384615 C10.62,4.65384615 10.4822069,4.65257692 10.3448276,4.65130769 L10.3448276,7.61284615 C10.4822069,7.61411538 10.62,7.61538462 10.7586207,7.61538462 C10.8972414,7.61538462 11.0350345,7.61411538 11.1724138,7.61284615 L11.1724138,4.65130769 C11.0350345,4.65257692 10.8972414,4.65384615 10.7586207,4.65384615" id="XMLID_135_" fill="#DCA815"></path>
            <path d="M4.13793103,8.49284615 L4.13793103,11.4522692 C4.38951724,11.5470385 4.66510345,11.6384231 4.96551724,11.7255769 L4.96551724,8.76573077 C4.66510345,8.67857692 4.38951724,8.58719231 4.13793103,8.49284615" id="XMLID_134_" fill="#C49214"></path>
            <path d="M21.5172414,8.76573077 L21.5172414,11.7255769 C21.8176552,11.6384231 22.0932414,11.5470385 22.3448276,11.4522692 L22.3448276,8.49284615 C22.0932414,8.58761538 21.8176552,8.67857692 21.5172414,8.76573077" id="XMLID_133_" fill="#C49214"></path>
            <path d="M6.20689655,9.07288462 L6.20689655,12.0331538 C6.47172414,12.0894231 6.74772414,12.1427308 7.03448276,12.1930769 L7.03448276,9.23280769 C6.74772414,9.18246154 6.47172414,9.12915385 6.20689655,9.07288462" id="XMLID_132_" fill="#C49214"></path>
            <path d="M19.4482759,9.23280769 L19.4482759,12.1935 C19.7350345,12.1427308 20.0110345,12.0894231 20.2758621,12.0331538 L20.2758621,9.07288462 C20.0110345,9.12915385 19.7350345,9.18246154 19.4482759,9.23280769" id="XMLID_131_" fill="#C49214"></path>
            <path d="M8.27586207,9.42192308 L8.27586207,12.3826154 C8.54565517,12.4181538 8.82082759,12.4511538 9.10344828,12.4807692 L9.10344828,9.52007692 C8.82082759,9.49003846 8.54565517,9.45703846 8.27586207,9.42192308" id="XMLID_130_" fill="#C49214"></path>
            <path d="M17.3793103,9.51965385 L17.3793103,12.4807692 C17.661931,12.4507308 17.9371034,12.4177308 18.2068966,12.3826154 L18.2068966,9.42192308 C17.9371034,9.45746154 17.661931,9.49046154 17.3793103,9.51965385" id="XMLID_129_" fill="#C49214"></path>
            <path d="M10.3448276,9.62880769 L10.3448276,12.5899231 C10.6166897,12.6093846 10.8922759,12.6267308 11.1724138,12.6406923 L11.1724138,9.67915385 C10.8922759,9.66519231 10.6166897,9.64826923 10.3448276,9.62880769" id="XMLID_128_" fill="#C49214"></path>
            <path d="M15.3103448,9.67915385 L15.3103448,12.6406923 C15.5904828,12.6267308 15.866069,12.6093846 16.137931,12.5899231 L16.137931,9.62880769 C15.866069,9.64826923 15.5904828,9.66519231 15.3103448,9.67915385" id="XMLID_127_" fill="#C49214"></path>
            <path d="M13.2413793,9.73076923 C13.1027586,9.73076923 12.9649655,9.7295 12.8275862,9.72823077 L12.8275862,12.6897692 C12.9649655,12.6910385 13.1027586,12.6923077 13.2413793,12.6923077 C13.38,12.6923077 13.5177931,12.6910385 13.6551724,12.6897692 L13.6551724,9.72823077 C13.5177931,9.7295 13.38,9.73076923 13.2413793,9.73076923" id="XMLID_126_" fill="#C49214"></path>
            <path d="M1.65517241,13.1466923 L1.65517241,16.1061154 C1.90675862,16.2008846 2.18234483,16.2918462 2.48275862,16.3794231 L2.48275862,13.4195769 C2.18234483,13.3324231 1.90675862,13.2410385 1.65517241,13.1466923" id="XMLID_125_" fill="#DCA815"></path>
            <path d="M19.0344828,13.4195769 L19.0344828,16.3794231 C19.3348966,16.2922692 19.6104828,16.2008846 19.862069,16.1061154 L19.862069,13.1466923 C19.6104828,13.2414615 19.3348966,13.3324231 19.0344828,13.4195769" id="XMLID_124_" fill="#DCA815"></path>
            <path d="M3.72413793,13.7267308 L3.72413793,16.687 C3.98896552,16.7432692 4.26496552,16.7965769 4.55172414,16.8469231 L4.55172414,13.8866538 C4.26496552,13.8363077 3.98896552,13.783 3.72413793,13.7267308" id="XMLID_123_" fill="#DCA815"></path>
            <path d="M16.9655172,13.8866538 L16.9655172,16.8473462 C17.2522759,16.7965769 17.5282759,16.7432692 17.7931034,16.687 L17.7931034,13.7267308 C17.5282759,13.783 17.2522759,13.8363077 16.9655172,13.8866538" id="XMLID_122_" fill="#DCA815"></path>
            <path d="M5.79310345,14.0757692 L5.79310345,17.0364615 C6.06289655,17.072 6.33806897,17.105 6.62068966,17.1346154 L6.62068966,14.1739231 C6.33806897,14.1438846 6.06289655,14.1108846 5.79310345,14.0757692" id="XMLID_121_" fill="#DCA815"></path>
            <path d="M14.8965517,14.1735 L14.8965517,17.1346154 C15.1791724,17.1045769 15.4543448,17.0715769 15.7241379,17.0364615 L15.7241379,14.0757692 C15.4543448,14.1113077 15.1791724,14.1443077 14.8965517,14.1735" id="XMLID_120_" fill="#DCA815"></path>
            <path d="M7.86206897,14.2826538 L7.86206897,17.2437692 C8.13393103,17.2632308 8.40951724,17.2805769 8.68965517,17.2945385 L8.68965517,14.333 C8.40951724,14.3190385 8.13393103,14.3021154 7.86206897,14.2826538" id="XMLID_119_" fill="#DCA815"></path>
            <path d="M12.8275862,14.333 L12.8275862,17.2945385 C13.1077241,17.2805769 13.3833103,17.2632308 13.6551724,17.2437692 L13.6551724,14.2826538 C13.3833103,14.3021154 13.1077241,14.3190385 12.8275862,14.333" id="XMLID_118_" fill="#DCA815"></path>
            <path d="M10.7586207,14.3846154 C10.62,14.3846154 10.4822069,14.3833462 10.3448276,14.3820769 L10.3448276,17.3436154 C10.4822069,17.3448846 10.62,17.3461538 10.7586207,17.3461538 C10.8972414,17.3461538 11.0350345,17.3448846 11.1724138,17.3436154 L11.1724138,14.3820769 C11.0350345,14.3833462 10.8972414,14.3846154 10.7586207,14.3846154" id="XMLID_117_" fill="#DCA815"></path>
            <path d="M2.89655172,17.8005385 L2.89655172,20.7599615 C3.14813793,20.8547308 3.42372414,20.9456923 3.72413793,21.0332692 L3.72413793,18.0734231 C3.42372414,17.9862692 3.14813793,17.8948846 2.89655172,17.8005385" id="XMLID_116_" fill="#C49214"></path>
            <path d="M20.2758621,18.0734231 L20.2758621,21.0332692 C20.5762759,20.9461154 20.8518621,20.8547308 21.1034483,20.7599615 L21.1034483,17.8005385 C20.8518621,17.8953077 20.5762759,17.9862692 20.2758621,18.0734231" id="XMLID_115_" fill="#C49214"></path>
            <path d="M4.96551724,18.3805769 L4.96551724,21.3408462 C5.23034483,21.3971154 5.50634483,21.4504231 5.79310345,21.5007692 L5.79310345,18.5405 C5.50634483,18.4901538 5.23034483,18.4368462 4.96551724,18.3805769" id="XMLID_114_" fill="#C49214"></path>
            <path d="M18.2068966,18.5405 L18.2068966,21.5011923 C18.4936552,21.4504231 18.7696552,21.3971154 19.0344828,21.3408462 L19.0344828,18.3805769 C18.7696552,18.4368462 18.4936552,18.4901538 18.2068966,18.5405" id="XMLID_113_" fill="#C49214"></path>
            <path d="M7.03448276,18.7296154 L7.03448276,21.6903077 C7.30427586,21.7258462 7.57944828,21.7588462 7.86206897,21.7884615 L7.86206897,18.8277692 C7.57944828,18.7977308 7.30427586,18.7647308 7.03448276,18.7296154" id="XMLID_112_" fill="#C49214"></path>
            <path d="M16.137931,18.8273462 L16.137931,21.7884615 C16.4205517,21.7584231 16.6957241,21.7254231 16.9655172,21.6903077 L16.9655172,18.7296154 C16.6957241,18.7651538 16.4205517,18.7981538 16.137931,18.8273462" id="XMLID_111_" fill="#C49214"></path>
            <path d="M9.10344828,18.9365 L9.10344828,21.8976154 C9.37531034,21.9170769 9.65089655,21.9344231 9.93103448,21.9483846 L9.93103448,18.9868462 C9.65089655,18.9728846 9.37531034,18.9559615 9.10344828,18.9365" id="XMLID_110_" fill="#C49214"></path>
            <path d="M14.0689655,18.9868462 L14.0689655,21.9483846 C14.3491034,21.9344231 14.6246897,21.9170769 14.8965517,21.8976154 L14.8965517,18.9365 C14.6246897,18.9559615 14.3491034,18.9728846 14.0689655,18.9868462" id="XMLID_109_" fill="#C49214"></path>
            <path d="M12,19.0384615 C11.8613793,19.0384615 11.7235862,19.0371923 11.5862069,19.0359231 L11.5862069,21.9974615 C11.7235862,21.9987308 11.8613793,22 12,22 C12.1386207,22 12.2764138,21.9987308 12.4137931,21.9974615 L12.4137931,19.0359231 C12.2764138,19.0371923 12.1386207,19.0384615 12,19.0384615" id="XMLID_108_" fill="#C49214"></path>
            <path d="M21.1911724,15.3881538 C20.016,16.445 15.7915862,17.3461538 10.7586207,17.3461538 C6.82344828,17.3461538 3.38358621,16.7948846 1.50786207,16.0494231 C1.33531034,16.2093462 1.24137931,16.3785769 1.24137931,16.555 C1.24137931,17.8403077 6.05834483,19.0384615 12,19.0384615 C17.942069,19.0384615 22.7586207,17.8403077 22.7586207,16.555 C22.7586207,16.1120385 22.1855172,15.7160385 21.1911724,15.3881538" id="XMLID_107_" fill="#FCC62D"></path>
            <path d="M13.2413793,12.6923077 C7.77393103,12.6923077 3.26234483,11.6282692 2.57627586,10.4571923 C0.971172414,10.8290769 0,11.3245 0,11.9011538 C0,13.1860385 4.81696552,14.3846154 10.7586207,14.3846154 C16.7002759,14.3846154 21.5172414,13.1860385 21.5172414,11.9011538 C21.5172414,11.8444615 21.5048276,11.7890385 21.4862069,11.7340385 C19.5128276,12.3018077 16.5525517,12.6923077 13.2413793,12.6923077" id="XMLID_106_" fill="#FFD949"></path>
            <path d="M21.1005517,5.73226923 C19.8132414,6.75611538 15.672,7.61538462 10.7586207,7.61538462 C7.58565517,7.61538462 4.7342069,7.25661538 2.76496552,6.72692308 C2.58248276,6.89192308 2.48275862,7.06538462 2.48275862,7.24730769 C2.48275862,8.53261538 7.29972414,9.73076923 13.2413793,9.73076923 C19.1830345,9.73076923 24,8.53261538 24,7.24730769 C24,6.633 22.898069,6.1105 21.1005517,5.73226923" id="XMLID_105_" fill="#FCC62D"></path>
        </g>
    </g>
</svg>