<svg xmlns="http://www.w3.org/2000/svg" width="24" height="24" viewBox="0 0 24 24">
    <g fill="none" fill-rule="evenodd">
        <path fill="#F1F2F6" d="M8.614 20l-1.786 1.051-2.414-.389-.645-1.29-.737-1.529v-1.499l1.382-1.843 1.41-1.75 4.508-9.33L12 5.99l.004 1.415 3.725.72 1.192 3.403 3.778 2.132-10.367 4.787z"/>
        <path fill="#A1A8B5" d="M21.54 12.72l-3.801-1.596-1.099-3.276a.76.76 0 0 0-.506-.504l-3.211-1.091-1.605-3.78c-.254-.588-1.183-.672-1.521 0L4.39 13.643 3.29 14.736c-1.69 1.596-1.69 4.284-.084 5.964 1.605 1.68 4.309 1.68 5.998.084l1.183-1.176 11.237-5.292c.507-.335.507-1.26-.084-1.595zM8.024 19.439c-1.014.924-2.62.924-3.549 0-1.267-1.344-.676-3.108.592-4.2l3.548 3.528-.591.672zm2.027-1.596l-3.97-3.947 4.308-9.071.93 2.1L8.53 11.88l1.436.84 2.619-4.704 2.535.84.845 2.52-4.732 2.604.845 1.427 4.985-2.771 2.112.924-9.125 4.283z"/>
    </g>
</svg>
